# xmcd
#
# Track frame offsets:
#	150
#	13759
#	26421
#	39322
#	52408
#	63673
#	75634
#	89900
#	102262
#	116209
#	128525
#	141347
#	152887
#	165768
#	179338
#	191523
#	204126
#	216322
#	226836
#	241277
#	253554
#	265014
#	277073
#	289054
#	302489
#	315583
#
# Disc length: 4358 seconds
#
# Revision: 1
# Processed by: cddbd v1.5.2PL0 Copyright (c) Steve Scherf et al.
# Submitted via: EZCDAudioConverter 7.1.1.1
#
DISCID=7111041a
DTITLE=Various Artist - National Blues Meseum - From the Beginning  - Vol. 1 
DTITLE=CD 1
DYEAR=2017
DGENRE=Blues
TTITLE0=T-Bone Walker - Call it Stormy Monday But Tuesday is Just as Bad
TTITLE1=B.B. King - Every Day I Have the Blues
TTITLE2=Muddy Waters - I'm Your Hoochie Coochie Man
TTITLE3=Arthur "Big Boy" Crudup - That's All Right
TTITLE4=John Lee Hooker - Boom Boom
TTITLE5=Alberta Hunter - Stingaree Blues
TTITLE6=Charley Patton - A Spoonful Blues
TTITLE7=Washboard Sam - My Bucket's Got a Hole in it
TTITLE8=Howlin' Wolf - Smokestack Lightning
TTITLE9=Roosevelt Sykes - The Honey Dripper
TTITLE10=Bo Diddley - Pretty Thing
TTITLE11=Blind Willie Mctell - Don't Forget It
TTITLE12=Sunnyland Slim - Every Time I Get to Drinkin'
TTITLE13=Big Joe Turner with Pete Johnson's All Stars - SK Blues Pt 1
TTITLE14=Little Bobby Harris - Love Love Love
TTITLE15=Wynonie Harris - Wynonie's Blues
TTITLE16=Cecil Gant - I Wonder
TTITLE17=Jimmy Reed - Ain't That Lovin' You Baby
TTITLE18=Lonnie Johnson and Blind Willie Dunn - Guitar Blues
TTITLE19=Elmore James - Dust My Broom
TTITLE20=Smiley Lewis - I Hear You Knockin'
TTITLE21=Big Maybelle - Whole Lotta Shakin' Goin' On
TTITLE22=Little Walter - My Babe
TTITLE23=Bobby Bland - Farther Up The Road
TTITLE24=Pee Wee Crayton - I Love You So
TTITLE25=Edgar Blanchard and The Gondoliers - Creole Gal Blues
EXTD=
EXTT0=
EXTT1=
EXTT2=
EXTT3=
EXTT4=
EXTT5=
EXTT6=
EXTT7=
EXTT8=
EXTT9=
EXTT10=
EXTT11=
EXTT12=
EXTT13=
EXTT14=
EXTT15=
EXTT16=
EXTT17=
EXTT18=
EXTT19=
EXTT20=
EXTT21=
EXTT22=
EXTT23=
EXTT24=
EXTT25=
PLAYORDER=
